<svg width="128" height="128" viewBox="0 0 128 128" fill="none" xmlns="http://www.w3.org/2000/svg">
<path d="M112 88C112 90.0267 110.88 91.7867 109.173 92.6933L67.04 116.373C66.1867 117.013 65.12 117.333 64 117.333C62.88 117.333 61.8133 117.013 60.96 116.373L18.8267 92.6933C17.9712 92.2445 17.2554 91.5695 16.7569 90.742C16.2585 89.9145 15.9967 88.966 16 88V40C16 37.9734 17.12 36.2134 18.8267 35.3067L60.96 11.6267C61.8133 10.9867 62.88 10.6667 64 10.6667C65.12 10.6667 66.1867 10.9867 67.04 11.6267L109.173 35.3067C110.88 36.2134 112 37.9734 112 40V88ZM64 22.1334L53.92 27.84L85.3333 45.92L95.7867 40L64 22.1334ZM32.2133 40L64 57.8667L74.4533 52L43.0933 33.8667L32.2133 40ZM26.6667 84.8533L58.6667 102.88V67.0933L26.6667 49.12V84.8533ZM101.333 84.8533V49.12L69.3333 67.0933V102.88L101.333 84.8533Z" fill="#A1A1AA"/>
</svg>
