<svg width="360" height="800" viewBox="0 0 360 800" fill="none" xmlns="http://www.w3.org/2000/svg">
<rect width="360" height="800" fill="#18181B"/>
<path d="M228 424C228 426.027 226.88 427.787 225.173 428.693L183.04 452.373C182.187 453.013 181.12 453.333 180 453.333C178.88 453.333 177.813 453.013 176.96 452.373L134.827 428.693C133.971 428.244 133.255 427.57 132.757 426.742C132.259 425.914 131.997 424.966 132 424V376C132 373.973 133.12 372.213 134.827 371.307L176.96 347.627C177.813 346.987 178.88 346.667 180 346.667C181.12 346.667 182.187 346.987 183.04 347.627L225.173 371.307C226.88 372.213 228 373.973 228 376V424ZM180 358.133L169.92 363.84L201.333 381.92L211.787 376L180 358.133ZM148.213 376L180 393.867L190.453 388L159.093 369.867L148.213 376ZM142.667 420.853L174.667 438.88V403.093L142.667 385.12V420.853ZM217.333 420.853V385.12L185.333 403.093V438.88L217.333 420.853Z" fill="#A1A1AA"/>
<path d="M112.057 777V768.273H115.006C115.69 768.273 116.25 768.396 116.685 768.643C117.122 768.888 117.446 769.219 117.656 769.636C117.866 770.054 117.972 770.52 117.972 771.034C117.972 771.548 117.866 772.016 117.656 772.436C117.449 772.857 117.128 773.192 116.693 773.442C116.259 773.689 115.702 773.812 115.023 773.812H112.909V772.875H114.989C115.457 772.875 115.834 772.794 116.118 772.632C116.402 772.47 116.608 772.251 116.736 771.976C116.866 771.697 116.932 771.384 116.932 771.034C116.932 770.685 116.866 770.372 116.736 770.097C116.608 769.821 116.401 769.605 116.114 769.449C115.827 769.29 115.446 769.21 114.972 769.21H113.114V777H112.057ZM122.126 777.136C121.536 777.136 121.017 776.996 120.571 776.714C120.128 776.433 119.781 776.04 119.531 775.534C119.284 775.028 119.161 774.437 119.161 773.761C119.161 773.08 119.284 772.484 119.531 771.976C119.781 771.467 120.128 771.072 120.571 770.791C121.017 770.51 121.536 770.369 122.126 770.369C122.717 770.369 123.234 770.51 123.678 770.791C124.124 771.072 124.47 771.467 124.717 771.976C124.967 772.484 125.092 773.08 125.092 773.761C125.092 774.437 124.967 775.028 124.717 775.534C124.47 776.04 124.124 776.433 123.678 776.714C123.234 776.996 122.717 777.136 122.126 777.136ZM122.126 776.233C122.575 776.233 122.945 776.118 123.234 775.888C123.524 775.658 123.739 775.355 123.878 774.98C124.017 774.605 124.087 774.199 124.087 773.761C124.087 773.324 124.017 772.916 123.878 772.538C123.739 772.161 123.524 771.855 123.234 771.622C122.945 771.389 122.575 771.273 122.126 771.273C121.678 771.273 121.308 771.389 121.018 771.622C120.729 771.855 120.514 772.161 120.375 772.538C120.236 772.916 120.166 773.324 120.166 773.761C120.166 774.199 120.236 774.605 120.375 774.98C120.514 775.355 120.729 775.658 121.018 775.888C121.308 776.118 121.678 776.233 122.126 776.233ZM127.888 777L125.893 770.455H126.95L128.365 775.466H128.433L129.831 770.455H130.905L132.286 775.449H132.354L133.768 770.455H134.825L132.831 777H131.842L130.411 771.972H130.308L128.876 777H127.888ZM138.676 777.136C138.046 777.136 137.502 776.997 137.044 776.719C136.59 776.438 136.239 776.045 135.992 775.543C135.748 775.037 135.625 774.449 135.625 773.778C135.625 773.108 135.748 772.517 135.992 772.006C136.239 771.491 136.583 771.091 137.023 770.804C137.466 770.514 137.983 770.369 138.574 770.369C138.915 770.369 139.252 770.426 139.584 770.54C139.917 770.653 140.219 770.838 140.492 771.094C140.765 771.347 140.982 771.682 141.144 772.099C141.306 772.517 141.387 773.031 141.387 773.642V774.068H136.341V773.199H140.364C140.364 772.83 140.29 772.5 140.142 772.21C139.998 771.92 139.79 771.692 139.52 771.524C139.253 771.357 138.938 771.273 138.574 771.273C138.174 771.273 137.827 771.372 137.534 771.571C137.245 771.767 137.022 772.023 136.865 772.338C136.709 772.653 136.631 772.991 136.631 773.352V773.932C136.631 774.426 136.716 774.845 136.887 775.189C137.06 775.53 137.3 775.79 137.607 775.969C137.914 776.145 138.27 776.233 138.676 776.233C138.941 776.233 139.179 776.196 139.392 776.122C139.608 776.045 139.794 775.932 139.951 775.781C140.107 775.628 140.228 775.437 140.313 775.21L141.284 775.483C141.182 775.812 141.01 776.102 140.769 776.352C140.527 776.599 140.229 776.793 139.874 776.932C139.519 777.068 139.12 777.136 138.676 777.136ZM142.917 777V770.455H143.888V771.443H143.956C144.076 771.119 144.292 770.857 144.604 770.655C144.917 770.453 145.269 770.352 145.661 770.352C145.735 770.352 145.827 770.354 145.938 770.357C146.049 770.359 146.132 770.364 146.189 770.369V771.392C146.155 771.384 146.077 771.371 145.955 771.354C145.836 771.334 145.709 771.324 145.576 771.324C145.257 771.324 144.973 771.391 144.723 771.524C144.476 771.655 144.28 771.837 144.135 772.07C143.993 772.3 143.922 772.562 143.922 772.858V777H142.917ZM149.926 777.136C149.296 777.136 148.752 776.997 148.294 776.719C147.84 776.438 147.489 776.045 147.242 775.543C146.998 775.037 146.875 774.449 146.875 773.778C146.875 773.108 146.998 772.517 147.242 772.006C147.489 771.491 147.833 771.091 148.273 770.804C148.716 770.514 149.233 770.369 149.824 770.369C150.165 770.369 150.502 770.426 150.834 770.54C151.167 770.653 151.469 770.838 151.742 771.094C152.015 771.347 152.232 771.682 152.394 772.099C152.556 772.517 152.637 773.031 152.637 773.642V774.068H147.591V773.199H151.614C151.614 772.83 151.54 772.5 151.392 772.21C151.248 771.92 151.04 771.692 150.77 771.524C150.503 771.357 150.188 771.273 149.824 771.273C149.424 771.273 149.077 771.372 148.784 771.571C148.495 771.767 148.272 772.023 148.115 772.338C147.959 772.653 147.881 772.991 147.881 773.352V773.932C147.881 774.426 147.966 774.845 148.137 775.189C148.31 775.53 148.55 775.79 148.857 775.969C149.164 776.145 149.52 776.233 149.926 776.233C150.191 776.233 150.429 776.196 150.642 776.122C150.858 776.045 151.044 775.932 151.201 775.781C151.357 775.628 151.478 775.437 151.563 775.21L152.534 775.483C152.432 775.812 152.26 776.102 152.019 776.352C151.777 776.599 151.479 776.793 151.124 776.932C150.769 777.068 150.37 777.136 149.926 777.136ZM156.638 777.136C156.093 777.136 155.611 776.999 155.194 776.723C154.776 776.445 154.449 776.053 154.213 775.547C153.978 775.038 153.86 774.438 153.86 773.744C153.86 773.057 153.978 772.46 154.213 771.955C154.449 771.449 154.777 771.058 155.198 770.783C155.618 770.507 156.104 770.369 156.655 770.369C157.081 770.369 157.418 770.44 157.665 770.582C157.915 770.722 158.105 770.881 158.236 771.06C158.37 771.236 158.473 771.381 158.547 771.494H158.632V768.273H159.638V777H158.667V775.994H158.547C158.473 776.114 158.368 776.264 158.232 776.446C158.096 776.625 157.901 776.786 157.648 776.928C157.395 777.067 157.059 777.136 156.638 777.136ZM156.775 776.233C157.178 776.233 157.519 776.128 157.797 775.918C158.076 775.705 158.287 775.411 158.432 775.036C158.577 774.658 158.65 774.222 158.65 773.727C158.65 773.239 158.578 772.811 158.436 772.445C158.294 772.075 158.084 771.788 157.806 771.584C157.527 771.376 157.184 771.273 156.775 771.273C156.348 771.273 155.993 771.382 155.709 771.601C155.428 771.817 155.216 772.111 155.074 772.483C154.935 772.852 154.865 773.267 154.865 773.727C154.865 774.193 154.936 774.616 155.078 774.997C155.223 775.375 155.436 775.676 155.718 775.901C156.002 776.122 156.354 776.233 156.775 776.233ZM165.131 777V768.273H166.137V771.494H166.222C166.296 771.381 166.398 771.236 166.529 771.06C166.662 770.881 166.853 770.722 167.1 770.582C167.35 770.44 167.688 770.369 168.114 770.369C168.665 770.369 169.151 770.507 169.571 770.783C169.992 771.058 170.32 771.449 170.556 771.955C170.792 772.46 170.909 773.057 170.909 773.744C170.909 774.438 170.792 775.038 170.556 775.547C170.32 776.053 169.993 776.445 169.576 776.723C169.158 776.999 168.676 777.136 168.131 777.136C167.711 777.136 167.374 777.067 167.121 776.928C166.868 776.786 166.674 776.625 166.537 776.446C166.401 776.264 166.296 776.114 166.222 775.994H166.103V777H165.131ZM166.12 773.727C166.12 774.222 166.192 774.658 166.337 775.036C166.482 775.411 166.694 775.705 166.972 775.918C167.25 776.128 167.591 776.233 167.995 776.233C168.415 776.233 168.766 776.122 169.047 775.901C169.331 775.676 169.544 775.375 169.686 774.997C169.831 774.616 169.904 774.193 169.904 773.727C169.904 773.267 169.833 772.852 169.691 772.483C169.551 772.111 169.34 771.817 169.056 771.601C168.775 771.382 168.421 771.273 167.995 771.273C167.586 771.273 167.242 771.376 166.963 771.584C166.685 771.788 166.475 772.075 166.333 772.445C166.191 772.811 166.12 773.239 166.12 773.727ZM172.861 779.455C172.691 779.455 172.539 779.44 172.405 779.412C172.272 779.386 172.179 779.361 172.128 779.335L172.384 778.449C172.628 778.511 172.844 778.534 173.032 778.517C173.219 778.5 173.385 778.416 173.53 778.266C173.678 778.118 173.813 777.878 173.935 777.545L174.123 777.034L171.702 770.455H172.793L174.6 775.67H174.668L176.475 770.455H177.566L174.787 777.955C174.662 778.293 174.507 778.572 174.323 778.794C174.138 779.018 173.924 779.185 173.679 779.293C173.438 779.401 173.165 779.455 172.861 779.455ZM182.762 777H181.654L184.859 768.273H185.95L189.154 777H188.047L185.439 769.653H185.37L182.762 777ZM183.172 773.591H187.637V774.528H183.172V773.591ZM191.383 773.062V777H190.377V770.455H191.349V771.477H191.434C191.588 771.145 191.821 770.878 192.133 770.676C192.446 770.472 192.849 770.369 193.343 770.369C193.787 770.369 194.174 770.46 194.507 770.642C194.839 770.821 195.098 771.094 195.282 771.46C195.467 771.824 195.559 772.284 195.559 772.841V777H194.554V772.909C194.554 772.395 194.42 771.994 194.153 771.707C193.886 771.418 193.52 771.273 193.054 771.273C192.733 771.273 192.446 771.342 192.193 771.482C191.943 771.621 191.745 771.824 191.6 772.091C191.456 772.358 191.383 772.682 191.383 773.062ZM200.056 777.136C199.465 777.136 198.947 776.996 198.501 776.714C198.058 776.433 197.711 776.04 197.461 775.534C197.214 775.028 197.09 774.437 197.09 773.761C197.09 773.08 197.214 772.484 197.461 771.976C197.711 771.467 198.058 771.072 198.501 770.791C198.947 770.51 199.465 770.369 200.056 770.369C200.647 770.369 201.164 770.51 201.607 770.791C202.053 771.072 202.4 771.467 202.647 771.976C202.897 772.484 203.022 773.08 203.022 773.761C203.022 774.437 202.897 775.028 202.647 775.534C202.4 776.04 202.053 776.433 201.607 776.714C201.164 776.996 200.647 777.136 200.056 777.136ZM200.056 776.233C200.505 776.233 200.874 776.118 201.164 775.888C201.454 775.658 201.668 775.355 201.808 774.98C201.947 774.605 202.016 774.199 202.016 773.761C202.016 773.324 201.947 772.916 201.808 772.538C201.668 772.161 201.454 771.855 201.164 771.622C200.874 771.389 200.505 771.273 200.056 771.273C199.607 771.273 199.238 771.389 198.948 771.622C198.658 771.855 198.444 772.161 198.305 772.538C198.165 772.916 198.096 773.324 198.096 773.761C198.096 774.199 198.165 774.605 198.305 774.98C198.444 775.355 198.658 775.658 198.948 775.888C199.238 776.118 199.607 776.233 200.056 776.233ZM207.404 770.455V771.307H204.012V770.455H207.404ZM205 768.886H206.006V775.125C206.006 775.409 206.047 775.622 206.13 775.764C206.215 775.903 206.323 775.997 206.453 776.045C206.587 776.091 206.728 776.114 206.875 776.114C206.986 776.114 207.077 776.108 207.148 776.097C207.219 776.082 207.276 776.071 207.319 776.062L207.523 776.966C207.455 776.991 207.36 777.017 207.238 777.043C207.115 777.071 206.961 777.085 206.773 777.085C206.489 777.085 206.211 777.024 205.938 776.902C205.668 776.78 205.444 776.594 205.265 776.344C205.088 776.094 205 775.778 205 775.398V768.886ZM210.063 773.062V777H209.057V768.273H210.063V771.477H210.148C210.301 771.139 210.532 770.871 210.838 770.672C211.148 770.47 211.56 770.369 212.074 770.369C212.52 770.369 212.911 770.459 213.246 770.638C213.581 770.814 213.841 771.085 214.026 771.452C214.213 771.815 214.307 772.278 214.307 772.841V777H213.301V772.909C213.301 772.389 213.167 771.987 212.897 771.703C212.63 771.416 212.259 771.273 211.784 771.273C211.455 771.273 211.159 771.342 210.898 771.482C210.64 771.621 210.435 771.824 210.284 772.091C210.137 772.358 210.063 772.682 210.063 773.062ZM218.891 777.136C218.261 777.136 217.717 776.997 217.259 776.719C216.805 776.438 216.454 776.045 216.207 775.543C215.962 775.037 215.84 774.449 215.84 773.778C215.84 773.108 215.962 772.517 216.207 772.006C216.454 771.491 216.798 771.091 217.238 770.804C217.681 770.514 218.198 770.369 218.789 770.369C219.13 770.369 219.467 770.426 219.799 770.54C220.131 770.653 220.434 770.838 220.707 771.094C220.979 771.347 221.197 771.682 221.359 772.099C221.521 772.517 221.602 773.031 221.602 773.642V774.068H216.556V773.199H220.579C220.579 772.83 220.505 772.5 220.357 772.21C220.212 771.92 220.005 771.692 219.735 771.524C219.468 771.357 219.153 771.273 218.789 771.273C218.388 771.273 218.042 771.372 217.749 771.571C217.46 771.767 217.237 772.023 217.08 772.338C216.924 772.653 216.846 772.991 216.846 773.352V773.932C216.846 774.426 216.931 774.845 217.102 775.189C217.275 775.53 217.515 775.79 217.822 775.969C218.129 776.145 218.485 776.233 218.891 776.233C219.156 776.233 219.394 776.196 219.607 776.122C219.823 776.045 220.009 775.932 220.165 775.781C220.322 775.628 220.442 775.437 220.528 775.21L221.499 775.483C221.397 775.812 221.225 776.102 220.984 776.352C220.742 776.599 220.444 776.793 220.089 776.932C219.734 777.068 219.335 777.136 218.891 777.136ZM223.131 777V770.455H224.103V771.443H224.171C224.29 771.119 224.506 770.857 224.819 770.655C225.131 770.453 225.484 770.352 225.876 770.352C225.95 770.352 226.042 770.354 226.153 770.357C226.263 770.359 226.347 770.364 226.404 770.369V771.392C226.37 771.384 226.292 771.371 226.17 771.354C226.05 771.334 225.924 771.324 225.79 771.324C225.472 771.324 225.188 771.391 224.938 771.524C224.691 771.655 224.495 771.837 224.35 772.07C224.208 772.3 224.137 772.562 224.137 772.858V777H223.131ZM230.426 777H227.733V768.273H230.545C231.392 768.273 232.116 768.447 232.718 768.797C233.321 769.143 233.782 769.642 234.103 770.293C234.424 770.94 234.585 771.716 234.585 772.619C234.585 773.528 234.423 774.311 234.099 774.967C233.775 775.621 233.304 776.124 232.684 776.476C232.065 776.825 231.312 777 230.426 777ZM228.789 776.062H230.358C231.079 776.062 231.677 775.923 232.152 775.645C232.626 775.366 232.98 774.97 233.213 774.456C233.446 773.942 233.562 773.33 233.562 772.619C233.562 771.915 233.447 771.308 233.217 770.8C232.987 770.288 232.643 769.896 232.186 769.624C231.728 769.348 231.159 769.21 230.477 769.21H228.789V776.062ZM238.966 777.136C238.335 777.136 237.791 776.997 237.333 776.719C236.879 776.438 236.528 776.045 236.281 775.543C236.037 775.037 235.914 774.449 235.914 773.778C235.914 773.108 236.037 772.517 236.281 772.006C236.528 771.491 236.872 771.091 237.312 770.804C237.755 770.514 238.272 770.369 238.863 770.369C239.204 770.369 239.541 770.426 239.873 770.54C240.206 770.653 240.508 770.838 240.781 771.094C241.054 771.347 241.271 771.682 241.433 772.099C241.595 772.517 241.676 773.031 241.676 773.642V774.068H236.63V773.199H240.653C240.653 772.83 240.579 772.5 240.431 772.21C240.287 771.92 240.079 771.692 239.809 771.524C239.542 771.357 239.227 771.273 238.863 771.273C238.463 771.273 238.116 771.372 237.824 771.571C237.534 771.767 237.311 772.023 237.154 772.338C236.998 772.653 236.92 772.991 236.92 773.352V773.932C236.92 774.426 237.005 774.845 237.176 775.189C237.349 775.53 237.589 775.79 237.896 775.969C238.203 776.145 238.559 776.233 238.966 776.233C239.23 776.233 239.468 776.196 239.681 776.122C239.897 776.045 240.083 775.932 240.24 775.781C240.396 775.628 240.517 775.437 240.602 775.21L241.574 775.483C241.471 775.812 241.299 776.102 241.058 776.352C240.816 776.599 240.518 776.793 240.163 776.932C239.808 777.068 239.409 777.136 238.966 777.136ZM248.359 770.455L245.938 777H244.915L242.495 770.455H243.586L245.393 775.67H245.461L247.268 770.455H248.359Z" fill="white"/>
</svg>
